<?xml version="1.0" encoding="iso-8859-1"?>
<!-- Uploaded to: SVG Repo, www.svgrepo.com, Generator: SVG Repo Mixer Tools -->
<svg fill="#FFECD6" height="800px" width="800px" version="1.1" id="Layer_1" xmlns="http://www.w3.org/2000/svg" xmlns:xlink="http://www.w3.org/1999/xlink" 
	 viewBox="0 0 512 512" xml:space="preserve">
<g>
	<g>
		<path d="M448.098,298.459v-143.17h14.727c4.652,0,8.422-3.771,8.422-8.422v-43.715c0-4.651-3.77-8.422-8.422-8.422h-4.602
			c-75.733,0-146.903-33.417-195.261-91.685C261.362,1.115,258.986,0,256.481,0S251.6,1.116,250,3.044
			C201.657,61.311,130.493,94.729,54.754,94.729h-4.602c-4.651,0-8.422,3.771-8.422,8.422v43.715c0,4.651,3.771,8.422,8.422,8.422
			h13.75V298.46c-17.013,3.847-29.759,19.075-29.759,37.233c0,21.053,17.128,38.181,38.181,38.181s38.181-17.128,38.181-38.181
			c0-18.159-12.746-33.386-29.759-37.233V155.288h82.398V298.46c-17.013,3.847-29.759,19.075-29.759,37.233
			c0,21.053,17.128,38.181,38.181,38.181s38.181-17.128,38.181-38.181c0-18.159-12.746-33.386-29.759-37.233V155.288h53.762v306.033
			H84.801c-4.651,0-8.422,3.771-8.422,8.422v33.834c0,4.651,3.771,8.422,8.422,8.422h343.374c4.652,0,8.422-3.771,8.422-8.422
			v-33.834c0-4.651-3.77-8.422-8.422-8.422H279.233V155.288h52.778V298.46c-17.013,3.847-29.759,19.075-29.759,37.233
			c0,21.053,17.128,38.181,38.181,38.181s38.181-17.128,38.181-38.181c0-18.159-12.746-33.386-29.759-37.233V155.288h82.398V298.46
			c-17.013,3.847-29.759,19.075-29.759,37.233c0,21.053,17.128,38.181,38.181,38.181c21.054,0,38.181-17.128,38.181-38.181
			C477.857,317.533,465.11,302.306,448.098,298.459z M364.055,94.729h-50.684c-9.957,0-18.921-11.692-24.685-21.502
			c-5.297-9.012-10.316-20.594-14.886-34.229C300.091,63.532,330.77,82.396,364.055,94.729z M256.487,40.35
			c5.272,16.509,11.186,30.371,17.676,41.412c2.897,4.93,5.892,9.252,8.978,12.966h-53.305c3.086-3.715,6.081-8.037,8.978-12.966
			C245.303,70.722,251.216,56.856,256.487,40.35z M239.185,38.984c-4.572,13.644-9.594,25.225-14.893,34.243
			c-5.764,9.809-14.727,21.502-24.683,21.502h-50.684C182.214,82.394,212.895,63.526,239.185,38.984z M93.661,335.693
			c0,11.765-9.571,21.336-21.337,21.336c-11.765,0-21.336-9.571-21.336-21.336c0-11.765,9.571-21.337,21.336-21.337
			C84.089,314.357,93.661,323.928,93.661,335.693z M192.903,335.693c0,11.765-9.571,21.336-21.336,21.336
			c-11.765,0-21.337-9.571-21.337-21.336c0-11.765,9.571-21.337,21.337-21.337C183.332,314.357,192.903,323.928,192.903,335.693z
			 M419.753,478.166v16.989H93.224v-16.989H419.753z M250.597,461.321V155.288h11.791v306.033H250.597z M361.77,335.693
			c0,11.765-9.571,21.336-21.337,21.336s-21.336-9.571-21.336-21.336c0-11.765,9.571-21.337,21.336-21.337
			S361.77,323.928,361.77,335.693z M58.574,138.444v-26.871h395.828v26.871H58.574z M439.676,357.03
			c-11.765,0-21.336-9.571-21.336-21.336c0-11.765,9.571-21.337,21.336-21.337s21.337,9.571,21.337,21.337
			C461.013,347.458,451.44,357.03,439.676,357.03z" stroke="#FFECD6" stroke-width="3" stroke-linecap="round" stroke-linejoin="round"/>
	</g>
</g>
</svg>