<?xml version="1.0" encoding="iso-8859-1"?>
<!-- Uploaded to: SVG Repo, www.svgrepo.com, Generator: SVG Repo Mixer Tools -->
<svg fill="#098ec3" height="800px" width="800px" version="1.1" id="Layer_1" xmlns="http://www.w3.org/2000/svg" xmlns:xlink="http://www.w3.org/1999/xlink" 
	 viewBox="0 0 512 512" xml:space="preserve">
<g>
	<g>
		<path d="M215.77,59.535l-47.628-47.628H0v434.605c0,29.546,24.037,53.581,53.581,53.581h404.837
			c29.545,0,53.581-24.035,53.581-53.581V59.535H215.77z M476.279,446.512c0,9.849-8.012,17.86-17.86,17.86H53.581
			c-9.848,0-17.86-8.011-17.86-17.86V47.628h117.625l47.628,47.628h275.305V446.512z"/>
	</g>
</g>
<g>
	<g>
		<path d="M404.837,244.093v12.23c-12.039-7.728-26.337-12.23-41.674-12.23c-42.676,0-77.395,34.72-77.395,77.395
			c0,42.676,34.72,77.395,77.395,77.395c15.337,0,29.635-4.502,41.674-12.231v12.231h35.721V244.093H404.837z M363.163,363.163
			c-22.979,0-41.674-18.695-41.674-41.674c0-22.979,18.695-41.674,41.674-41.674s41.674,18.695,41.674,41.674
			C404.837,344.468,386.142,363.163,363.163,363.163z"/>
	</g>
</g>
<g>
	<g>
		<path d="M178.326,140.823L63.151,398.884h39.117l34.543-77.395h83.383l34.705,77.395h39.148L178.326,140.823z M152.753,285.767
			l25.651-57.474l25.773,57.474H152.753z"/>
	</g>
</g>
</svg>