<svg xmlns="http://www.w3.org/2000/svg" viewBox="0 160 500 200" width="500" height="300"><path vector-effect="non-scaling-stroke" d="M293.91 159.9c-27.73 36.5-53.51 72.39-77.34 107.67-6.85 10.15-14.02 21.69-21.5 34.62-1.38 2.39-2.53 5.07-3.71 7.58-.48 1.01-.2 1.31.84.88 7.76-3.17 14.5-7.81 20.22-13.92m24.73-7.28c.62 1.87.91 3.38.88 4.55-.1 3.31-3.28 7.3-5.59 9.81-10.35 11.27-21.91 20.92-34.69 28.96-6.88 4.33-13.48 7.61-22.04 6.11m19.99-76.33c3.98-5.69 8-11.53 12.07-17.5 10.79-15.83 21.77-31.53 32.92-47.09.06-.09.05-.16-.03-.23-.09-.07-.16-.06-.23.01-22.71 23.76-45.43 47.53-68.14 71.3a2518.67 2518.67 0 0 1-57.52 58.24c-1.24 1.21-2.96 2.71-5.17 4.48-1.59 1.28-3.13 1.75-5.1 1.71-.97-.02-1.95-.08-2.93-.18m21.8-79.33 29.21-53.33c1.31-2.4 1.06-2.57-.74-.52a1015.915 1015.915 0 0 0-76.45 98.55c-13.47 19.75-25.53 39.92-36.2 60.51-1.54 2.98-3.94 4.11-7.19 3.39-1.77-.39-3.64-.7-5.59-.91m172.68-201.79-66.85 121.26c-1.11 2.02-.9 2.17.63.45l33.61-37.8m306.11-77.65c3.18 6.11 3.53 12.26 1.06 18.45-1.62 4.07-3.55 7.74-5.8 11.02-10.32 15.1-23.51 27.26-39.57 36.49-5.13 2.95-10.57 4.23-16.3 3.84m36.87-52.05c1.09-2.23 1.37-4.44.85-6.65a1.22 1.22 0 0 0-.67-.8c-3.03-1.35-8.13-.39-11.26.37-6.19 1.53-12.63 3.93-19.3 7.21-25.21 12.4-46.63 29.84-64.27 52.31-13.09 16.67-25.05 37.28-27.12 58.1-.3 2.98-.15 6.45.45 9.35 1.27 6.03 5 9.85 11.21 11.48m92.81-37.18c-.38 1.31-.66 2.8-.85 4.45-.2 1.74-1.22 3.95-3.07 6.64-2.98 4.34-6.16 8.19-9.55 11.54-20.57 20.35-47.27 34.1-76.33 34.79-4.55.11-9.17-.78-13.87-2.66m11.43-168.49c-1.81 5.07-4.23 10.57-7.27 16.48-6.43 12.51-13.65 23.93-21.68 34.27-1.99 2.56-4.56 4.73-7.71 6.5" stroke-width="5" fill="none" stroke="#0a4893"/><path fill="#098ec3" d="M293.91 159.9c-27.73 36.5-53.51 72.39-77.34 107.67-6.85 10.15-14.02 21.69-21.5 34.62-1.38 2.39-2.53 5.07-3.71 7.58-.48 1.01-.2 1.31.84.88 7.76-3.17 14.5-7.81 20.22-13.92 7.23-6 13.22-11.86 17.97-17.59.91-1.1 1.87-2.17 2.87-3.21a.59.59 0 0 1 .87.02c.76.85 1.24 1.78 1.45 2.8.67 3.38 1.2 6.95 1.57 10.7.62 1.87.91 3.38.88 4.55-.1 3.31-3.28 7.3-5.59 9.81-10.35 11.27-21.91 20.92-34.69 28.96-6.88 4.33-13.48 7.61-22.04 6.11-3.89-1.29-6.94-3.42-9.16-6.39-2.48-3.31-3.57-6.88-3.28-10.69.21-2.79 1.31-6.23 3.29-10.34 3.96-8.18 8.67-16.52 14.12-25.03 2.11-3.29 7.11-11.25 15.02-23.88 3.98-5.69 8-11.53 12.07-17.5 10.79-15.83 21.77-31.53 32.92-47.09.06-.09.05-.16-.03-.23-.09-.07-.16-.06-.23.01-22.71 23.76-45.43 47.53-68.14 71.3a2518.67 2518.67 0 0 1-57.52 58.24c-1.24 1.21-2.96 2.71-5.17 4.48-1.59 1.28-3.13 1.75-5.1 1.71-.97-.02-1.95-.08-2.93-.18-3.61-1.16-6.45-2.86-8.5-5.11-2.22-2.43-2.87-5.12-1.95-8.05.35-1.11 1.47-3.69 3.38-7.75 9.18-19.56 18.8-39.03 28.87-58.42l29.21-53.33c1.31-2.4 1.06-2.57-.74-.52a1015.915 1015.915 0 0 0-76.45 98.55c-13.47 19.75-25.53 39.92-36.2 60.51-1.54 2.98-3.94 4.11-7.19 3.39-1.77-.39-3.64-.7-5.59-.91-3.25-1.39-5.39-2.45-6.42-3.18-3.49-2.51-5.14-6.55-3.4-10.66.59-1.4 1.26-2.76 2.01-4.07 4.92-8.64 9.29-15.81 13.1-21.52 27.17-40.7 55.99-79.63 86.46-116.78a600.873 600.873 0 0 1 29.72-33.58c5.27-5.52 10.79-10.49 16.56-14.91 3.59-2.75 8.33-5.52 12.86-2.72.54.34 1.24.29 1.74-.12.97-.78 2.1-1.49 3.38-1.66 3.81-.51 7.53-.2 11.14.92 2.29.71 4.04 1.81 5.27 3.32.52.63.61 1.68.26 3.17l-66.85 121.26c-1.11 2.02-.9 2.17.63.45l33.61-37.8c19.13-20.36 38.5-40.17 58.1-59.44 3.82-3.75 8.84-8.46 15.06-14.13 6.52-5.93 12.83-11.2 18.93-15.83 2.39-1.81 5.84-4.59 8.87-4.68 1.77-.05 3.44.17 5 .67 3.98 1.27 7.82 1.99 11.51 2.17 1.86.09 3.71.29 5.54.59 3.33.55 5.87 3.18 4.42 6.78Zm178.68 6.22c3.18 6.11 3.53 12.26 1.06 18.45-1.62 4.07-3.55 7.74-5.8 11.02-10.32 15.1-23.51 27.26-39.57 36.49-5.13 2.95-10.57 4.23-16.3 3.84-4.14-1.29-7.3-3.54-9.47-6.74-1.45-2.15-1.98-4.24-1.57-6.29.51-2.56 1.41-4.83 2.7-6.8.2-.31.5-.48.9-.52.29-.03.53.23.47.52-.06.28-.05.56.03.83.11.35.34.56.69.64 2.43.58 4.71.4 6.82-.55 2.96-1.32 5.96-3.05 9-5.19 10.71-7.56 19.81-16.88 27.3-27.95 1.09-2.23 1.37-4.44.85-6.65a1.22 1.22 0 0 0-.67-.8c-3.03-1.35-8.13-.39-11.26.37-6.19 1.53-12.63 3.93-19.3 7.21-25.21 12.4-46.63 29.84-64.27 52.31-13.09 16.67-25.05 37.28-27.12 58.1-.3 2.98-.15 6.45.45 9.35 1.27 6.03 5 9.85 11.21 11.48 2.6.71 5.36.87 8.27.48 12.81-1.75 24.35-7.4 35.54-14.27 13.48-8.27 26.79-18.6 39.94-30.97 2.86-2.69 4.96-5.36 6.3-8.01.15-.3.4-.41.73-.32 1.66.45 2.59 1.3 2.78 2.55.51 3.31.26 7.76-.75 13.36-.38 1.31-.66 2.8-.85 4.45-.2 1.74-1.22 3.95-3.07 6.64-2.98 4.34-6.16 8.19-9.55 11.54-20.57 20.35-47.27 34.1-76.33 34.79-4.55.11-9.17-.78-13.87-2.66-1.27-.82-2.62-1.68-4.05-2.59a35.18 35.18 0 0 1-4.14-3.04c-10.27-8.87-15.1-20.42-14.49-34.64.3-7.11 1.67-14.47 4.11-22.09 3.97-12.39 10.05-24.63 18.24-36.71 13.39-19.75 30.32-36.89 50.79-51.44 11.56-8.21 23.56-14.7 36-19.45 8.31-3.18 15.56-5.16 21.76-5.95 1.61-.21 3.14-.44 4.59-.69 3.25-.58 6.45-.3 9.72-.37 1.69-.04 3.4.13 5.15.52 5.54 1.22 10.42 3.54 14.29 7.33.95.93 1.86 1.74 2.74 2.42Zm-133.28-1.79c-1.81 5.07-4.23 10.57-7.27 16.48-6.43 12.51-13.65 23.93-21.68 34.27-1.99 2.56-4.56 4.73-7.71 6.5-3.59-.95-8.11-3.72-9.83-7.39-.14-.31-.16-.62-.05-.94 1.4-4.06 3.16-8.14 5.28-12.25 6-11.67 12.71-23.94 20.12-36.83 1.89-3.28 4.3-5.34 7.22-6.19 2.61-.77 5.64-.52 8.36-.43 1.35.05 2.8.64 4.35 1.75 1.37.98 1.39 2.74 1.1 4.21-.09.45-.05.72.11.82Z"/><path fill="#FFECD6" d="M199.09 159.86c2.8.2 5.54 1.14 8.21 2.82 3.62 2.28 1.25 4.46.25 7.16-.23.61-.5 1.2-.82 1.77-13.38 23.79-26.8 47.85-40.25 72.16l-33.61 37.8c-1.53 1.72-1.74 1.57-.63-.45l66.85-121.26Zm94.82.04c3.83.08 8.29.11 10.01 3.49.85 1.68.13 3.17-.9 4.54-11.93 15.84-27.13 36.59-45.6 62.25-16.85 23.4-31.85 45.58-45 66.55-5.72 6.11-12.46 10.75-20.22 13.92-1.04.43-1.32.13-.84-.88 1.18-2.51 2.33-5.19 3.71-7.58 7.48-12.93 14.65-24.47 21.5-34.62 23.83-35.28 49.61-71.17 77.34-107.67Zm8.74 61.68c3.15-1.77 5.72-3.94 7.71-6.5 8.03-10.34 15.25-21.76 21.68-34.27 3.04-5.91 5.46-11.41 7.27-16.48 1.57.07 3.3.3 5.18.67 3.9.78 5.42 2.97 4.55 6.57-.12.49-.29.97-.52 1.42-.31.63-.2 1.28-.5 1.98-7.33 16.89-16.15 32.08-26.46 45.56-1.88 2.46-4.28 4.85-7.2 7.17-.76.61-2.27.92-3.08.66-3.81-1.23-6.68-3.49-8.63-6.78Zm169.94-55.46c3.82 1.64 6.85 3.88 9.09 6.72 2.86 3.63 3.96 7.8 3.29 12.5-.85 5.94-3.53 12.12-8.04 18.53-9.22 13.09-20.78 24.08-34.67 32.97a50.317 50.317 0 0 1-9.71 4.85c-4.09 1.51-7.68 1.91-10.79 1.22-4.02-.89-7.28-3.22-9.78-6.99 5.73.39 11.17-.89 16.3-3.84 16.06-9.23 29.25-21.39 39.57-36.49 2.25-3.28 4.18-6.95 5.8-11.02 2.47-6.19 2.12-12.34-1.06-18.45Zm-23.74 17.75c-7.87 1.87-15.94 4.96-24.21 9.28-30.11 15.73-54.16 38.01-72.13 66.83a122.712 122.712 0 0 0-13.88 31.23c-.21.71-.32 1.41-.34 2.1-.04 1.13-.78 1.76-.76 2.93.07 2.77-.86 5.21-.85 8.04.01 3.62.7 7.27 2.06 10.96-6.21-1.63-9.94-5.45-11.21-11.48-.6-2.9-.75-6.37-.45-9.35 2.07-20.82 14.03-41.43 27.12-58.1 17.64-22.47 39.06-39.91 64.27-52.31 6.67-3.28 13.11-5.68 19.3-7.21 3.13-.76 8.23-1.72 11.26-.37.33.15.58.45.67.8.52 2.21.24 4.42-.85 6.65ZM195.7 262.55c-4.24 4.01-8.32 8.08-12.23 12.21-4.09 4.33-8.07 8.49-11.94 12.49-16.86 17.44-34.14 35.63-51.39 51.32-3.82 3.48-8.97 2.23-13.22.07-2.35-1.19-4.13-2.98-5.35-5.35.98.1 1.96.16 2.93.18 1.97.04 3.51-.43 5.1-1.71 2.21-1.77 3.93-3.27 5.17-4.48a2518.67 2518.67 0 0 0 57.52-58.24c22.71-23.77 45.43-47.54 68.14-71.3.07-.07.14-.08.23-.01.08.07.09.14.03.23a2446.777 2446.777 0 0 0-32.92 47.09c-4.07 5.97-8.09 11.81-12.07 17.5Zm-72.33-8.59c-22.7 28.37-42.94 57.52-60.72 87.45-4.07 6.85-8.32 14.7-12.75 23.57-1.69 3.38-3.4 5.79-7.3 5.01-1.39-.27-2.9-.6-4.55-.98-1.58-.36-3.08-.8-4.49-1.31-3.06-1.11-5.44-3.13-7.15-6.05 1.95.21 3.82.52 5.59.91 3.25.72 5.65-.41 7.19-3.39 10.67-20.59 22.73-40.76 36.2-60.51 23.4-34.33 48.88-67.18 76.45-98.55 1.8-2.05 2.05-1.88.74.52l-29.21 53.33Zm204.51 78.86c4.7 1.88 9.32 2.77 13.87 2.66 29.06-.69 55.76-14.44 76.33-34.79 3.39-3.35 6.57-7.2 9.55-11.54 1.85-2.69 2.87-4.9 3.07-6.64.19-1.65.47-3.14.85-4.45 2.91-2.64 6.32-5.57 6.98-8.52.08-.36.45-.58.8-.48 5.47 1.53 2.36 10.08 2.36 13.71 0 1.68-.73 3-.85 4.68-.52 7.79-8.09 15.71-13.81 21.34-13.65 13.43-30.53 24.14-48.78 29.7-4.43 1.35-8.62 2.33-12.57 2.95-1.41.22-2.74.45-4 .68-1.31.25-2.59.38-3.84.39-4.04.06-8.12.05-12.23-.02-.35-.01-.68-.11-.97-.3-.9-.56-1.93-.48-2.99-.84-5.11-1.77-9.7-4.61-13.77-8.53Zm-152.17 6.06c8.56 1.5 15.16-1.78 22.04-6.11 12.78-8.04 24.34-17.69 34.69-28.96 2.31-2.51 5.49-6.5 5.59-9.81.03-1.17-.26-2.68-.88-4.55l5.62-6.02c.6-.64 1.68-.41 1.95.43 1.06 3.19 1.7 6.53 1.93 10.02.09 1.43.33 2.84.72 4.25.91 3.27.18 6.39-2.21 9.36-3.23 4.02-6.58 7.67-10.05 10.94-8.41 7.93-16.84 14.65-25.27 20.16-5.32 3.47-12.6 7.67-18.8 8.06-6.01.37-11.12-2.22-15.33-7.77Z"/></svg>